<?xml version="1.0" encoding="UTF-8"?>
<svg width="24px" height="24px" viewBox="0 0 24 24" version="1.1" xmlns="http://www.w3.org/2000/svg" xmlns:xlink="http://www.w3.org/1999/xlink">
    <title>UI/Actions and settings/lock</title>
    <g id="UI/Actions-and-settings/lock" stroke="none" stroke-width="1" fill="none" fill-rule="evenodd">
        <rect id="Bounding-box" x="0" y="0" width="24" height="24"></rect>
        <path d="M12,2 C14.71462,2 16.9239659,4.16333539 16.9980791,6.86004758 L17,7 L17,9 L19,9 L19,22 L5,22 L5,9 L7,9 L7,7 C7,4.23857625 9.23857625,2 12,2 Z M17,11 L7,11 L7,20 L17,20 L17,11 Z M13,13 L13,18 L11,18 L11,13 L13,13 Z M12,4 C10.3808015,4 9.06121412,5.28278744 9.00206924,6.88753087 L9,7 L9,9 L15,9 L15,7 C15,5.34314575 13.6568542,4 12,4 Z" id="Color" fill="#0000BF"></path>
    </g>
</svg>